<svg width="39" height="29" viewBox="0 0 39 29" fill="none" xmlns="http://www.w3.org/2000/svg">
<path d="M9.04109 3.1651C8.10362 4.49476 6.88275 5.63543 6.23142 7.12417C5.9975 7.65886 5.9198 8.23911 5.67091 8.75605C5.41769 9.28197 5.11379 9.89815 4.92592 10.4447C4.55476 11.5244 3.68417 12.3676 3.08829 13.304C2.73777 13.8548 2.15848 14.7124 1.6196 15.1062C1.34518 15.3067 0.609464 16.27 0.934924 16.3514C1.69278 16.5408 2.33574 16.9439 3.01024 17.3411C3.9378 17.8874 4.86163 18.2995 5.68865 18.9978C6.73426 19.8808 7.97502 20.5097 8.99851 21.4244C9.80096 22.1414 10.498 22.9723 11.3115 23.6842C12.0139 24.2988 12.86 24.7519 13.5749 25.3551C13.6276 25.3995 14.1365 25.827 14.0751 25.9191C14.0117 26.0141 13.253 25.0396 13.1917 24.94" stroke="#7062FC" stroke-width="1.66333" stroke-linecap="round" stroke-linejoin="round"/>
<path d="M25.2606 2.07959C23.7658 5.63166 22.1315 9.12108 20.6488 12.6797C19.729 14.887 18.9558 17.1183 18.1726 19.381C17.5569 21.1596 16.7942 22.8952 16.1292 24.6527C15.8982 25.263 15.7395 25.8862 15.6041 26.5222C15.3826 27.5633 15.4052 26.351 15.4268 25.8979" stroke="#7062FC" stroke-width="1.66333" stroke-linecap="round" stroke-linejoin="round"/>
<path d="M28.5811 1.31335C29.8827 2.79601 31.1288 4.28773 32.5118 5.69104C33.642 6.83788 34.142 8.49509 34.7751 9.93391C35.4321 11.427 36.0897 12.6634 37.0598 13.9568C37.1745 14.1099 37.5138 14.4888 37.5138 14.6876C37.5138 14.7832 37.056 14.7806 36.9817 14.7905C36.7288 14.8242 36.4274 15.0385 36.2154 15.1701C32.3704 17.5567 29.7708 21.0062 27.5097 24.8265C27.1234 25.4794 26.8372 26.424 26.2787 26.9267C25.9182 27.2512 25.624 27.678 25.1967 27.8916C24.7948 28.0926 25.0798 27.3815 25.1329 26.9835" stroke="#7062FC" stroke-width="1.66333" stroke-linecap="round" stroke-linejoin="round"/>
</svg>
