<svg width="60" height="40" viewBox="0 0 60 40" fill="none" xmlns="http://www.w3.org/2000/svg">
<path d="M4.9729 6.57333C4.39742 12.3405 4.04682 18.1668 3.33564 23.9203C3.26722 24.4739 2.72222 26.6592 3.36652 24.8924C3.83762 23.6006 3.68551 22.2544 4.44231 21.0294C5.4847 19.3421 10.1943 12.9151 12.4062 13.5652C16.8394 14.8682 12.3648 23.0911 11.0956 25.4474C10.6578 26.26 9.46513 28.0228 10.0827 28.9341C10.906 30.149 12.429 25.6592 12.4937 25.5218" stroke="#7062FC" stroke-width="2" stroke-linecap="round" stroke-linejoin="round"/>
<path d="M22.4815 10.3603C21.9562 12.937 17.543 25.655 21.7953 27.7616C22.9953 28.3561 25.6499 27.2339 26.4748 26.2665C27.3338 25.2591 26.8847 23.7166 26.7917 22.5474" stroke="#7062FC" stroke-width="2" stroke-linecap="round" stroke-linejoin="round"/>
<path d="M13.7328 10.6382C18.3983 12.0256 23.1962 12.9493 27.8316 14.3807C28.9259 14.7186 29.3361 14.8716 29.9252 15.8477C30.8415 17.366 28.4074 15.9791 27.9871 15.5192" stroke="#7062FC" stroke-width="2" stroke-linecap="round" stroke-linejoin="round"/>
<path d="M34.8311 19.6529C33.7602 22.8857 32.7536 26.1591 31.5315 29.3404C31.2885 29.9729 31.2518 30.2042 31.1209 29.7211C30.9948 29.2557 30.8721 28.9815 31.0787 28.49C32.1769 25.878 34.7403 22.1241 37.1577 20.6652C39.7683 19.0897 38.3438 24.3816 37.9931 25.4529C37.5993 26.656 36.5384 29.9535 37.7446 26.7627C38.4624 24.8638 40.1104 20.1445 42.8882 20.8314C44.5704 21.2474 44.1819 23.5219 43.8846 24.7246C43.3361 26.9425 42.7914 29.1455 42.2411 31.3708C41.437 34.6225 41.8713 32.8665 42.4588 30.4903" stroke="#7062FC" stroke-width="2" stroke-linecap="round" stroke-linejoin="round"/>
<path d="M55.5693 12.5746C53.8935 18.6026 51.8372 24.6134 50.3931 30.7041C50.2237 31.4184 49.8541 34.0633 50.9915 34.3783C52.0723 34.6777 56.3406 32.1129 55.2978 31.2237" stroke="#7062FC" stroke-width="2" stroke-linecap="round" stroke-linejoin="round"/>
</svg>
